<svg xmlns="http://www.w3.org/2000/svg" viewBox="-6 -6 252 252" width="512" height="512"><g transform="rotate(-18 120 120)"><path d="M108 24 C102 10 96 6 90 4 M120 22 C120 10 122 4 126 0 M132 24 C138 12 144 8 150 6" fill="none" stroke="#B9822E" stroke-width="4" stroke-linecap="round" stroke-linejoin="round"/><rect x="88" y="22" width="64" height="172" rx="32" fill="#FFE27A" stroke="#26324A" stroke-width="5" stroke-linejoin="round" stroke-linecap="round"/><clipPath id="cc"><rect x="88" y="22" width="64" height="172" rx="32"/></clipPath><g clip-path="url(#cc)"><rect x="90" y="26" width="13" height="15" rx="6" fill="#F5B400" stroke="none"/><rect x="106" y="26" width="13" height="15" rx="6" fill="#F5B400" stroke="none"/><rect x="122" y="26" width="13" height="15" rx="6" fill="#F5B400" stroke="none"/><rect x="138" y="26" width="13" height="15" rx="6" fill="#F5B400" stroke="none"/><rect x="90" y="43" width="13" height="15" rx="6" fill="#F5B400" stroke="none"/><rect x="106" y="43" width="13" height="15" rx="6" fill="#F5B400" stroke="none"/><rect x="122" y="43" width="13" height="15" rx="6" fill="#F5B400" stroke="none"/><rect x="138" y="43" width="13" height="15" rx="6" fill="#F5B400" stroke="none"/><rect x="90" y="60" width="13" height="15" rx="6" fill="#F5B400" stroke="none"/><rect x="106" y="60" width="13" height="15" rx="6" fill="#F5B400" stroke="none"/><rect x="122" y="60" width="13" height="15" rx="6" fill="#F5B400" stroke="none"/><rect x="138" y="60" width="13" height="15" rx="6" fill="#F5B400" stroke="none"/><rect x="90" y="77" width="13" height="15" rx="6" fill="#F5B400" stroke="none"/><rect x="106" y="77" width="13" height="15" rx="6" fill="#F5B400" stroke="none"/><rect x="122" y="77" width="13" height="15" rx="6" fill="#F5B400" stroke="none"/><rect x="138" y="77" width="13" height="15" rx="6" fill="#F5B400" stroke="none"/><rect x="90" y="94" width="13" height="15" rx="6" fill="#F5B400" stroke="none"/><rect x="106" y="94" width="13" height="15" rx="6" fill="#F5B400" stroke="none"/><rect x="122" y="94" width="13" height="15" rx="6" fill="#F5B400" stroke="none"/><rect x="138" y="94" width="13" height="15" rx="6" fill="#F5B400" stroke="none"/><rect x="90" y="111" width="13" height="15" rx="6" fill="#F5B400" stroke="none"/><rect x="106" y="111" width="13" height="15" rx="6" fill="#F5B400" stroke="none"/><rect x="122" y="111" width="13" height="15" rx="6" fill="#F5B400" stroke="none"/><rect x="138" y="111" width="13" height="15" rx="6" fill="#F5B400" stroke="none"/><rect x="90" y="128" width="13" height="15" rx="6" fill="#F5B400" stroke="none"/><rect x="106" y="128" width="13" height="15" rx="6" fill="#F5B400" stroke="none"/><rect x="122" y="128" width="13" height="15" rx="6" fill="#F5B400" stroke="none"/><rect x="138" y="128" width="13" height="15" rx="6" fill="#F5B400" stroke="none"/><rect x="90" y="145" width="13" height="15" rx="6" fill="#F5B400" stroke="none"/><rect x="106" y="145" width="13" height="15" rx="6" fill="#F5B400" stroke="none"/><rect x="122" y="145" width="13" height="15" rx="6" fill="#F5B400" stroke="none"/><rect x="138" y="145" width="13" height="15" rx="6" fill="#F5B400" stroke="none"/><rect x="90" y="162" width="13" height="15" rx="6" fill="#F5B400" stroke="none"/><rect x="106" y="162" width="13" height="15" rx="6" fill="#F5B400" stroke="none"/><rect x="122" y="162" width="13" height="15" rx="6" fill="#F5B400" stroke="none"/><rect x="138" y="162" width="13" height="15" rx="6" fill="#F5B400" stroke="none"/><rect x="90" y="179" width="13" height="15" rx="6" fill="#F5B400" stroke="none"/><rect x="106" y="179" width="13" height="15" rx="6" fill="#F5B400" stroke="none"/><rect x="122" y="179" width="13" height="15" rx="6" fill="#F5B400" stroke="none"/><rect x="138" y="179" width="13" height="15" rx="6" fill="#F5B400" stroke="none"/></g><rect x="88" y="22" width="64" height="172" rx="32" fill="none" stroke="#26324A" stroke-width="5" stroke-linejoin="round" stroke-linecap="round"/><path d="M120 236 C92 220 72 170 78 104 C92 150 108 186 126 206Z" fill="#43A047" stroke="#26324A" stroke-width="5" stroke-linejoin="round" stroke-linecap="round"/><path d="M122 236 C148 218 170 170 166 110 C152 154 136 190 114 210Z" fill="#2E7D32" stroke="#26324A" stroke-width="5" stroke-linejoin="round" stroke-linecap="round"/></g></svg>